<svg xmlns="http://www.w3.org/2000/svg" xmlns:svg="http://www.w3.org/2000/svg" id="svg26" width="728.571" height="127.597" version="1.1" viewBox="-7.112 -1.9 37.421 1.819"><metadata id="metadata32"/><path id="path22" fill="#1d2e43" d="m 29.956645,-1.1893497 h -0.361958 c -0.185812,0 -0.350916,0.01844 -0.495867,0.05523 -0.144943,0.03687 -0.26726,0.09583 -0.367757,0.177265 -0.09994,0.08117 -0.176147,0.18849 -0.228333,0.322016 -0.05189,0.13353397 -0.07787,0.29726597 -0.07787,0.49065897 V 1.8414253 h 0.724198 v -1.86359703 c 0,-0.09295 0.0047,-0.173244 0.01378,-0.240868 0.0092,-0.06787 0.03232,-0.124031 0.06989,-0.168635 0.0367,-0.04429 0.08891,-0.07831 0.155712,-0.101582 0.06707,-0.023 0.159586,-0.03483 0.278585,-0.03483 0.05932,0 0.133626,8.15e-4 0.222814,0.0033 0.08917,0.0016 0.170614,0.0049 0.245159,0.0089 L 30.25179,-1.1829347 c -0.09663,-0.0041 -0.19464,-0.0057 -0.295145,-0.0057 m -2.622069,1.22532494 h -1.197971 c 0,-0.147336 0.0078,-0.268202 0.02238,-0.362883 0.01487,-0.09495 0.04477,-0.170356 0.08918,-0.22646997 0.04445,-0.05612 0.106023,-0.09497 0.183879,-0.116257 0.07811,-0.02129 0.180286,-0.03198 0.306188,-0.03198 0.115406,0 0.211764,0.01069 0.289902,0.03198 0.07787,0.02129 0.139151,0.05522 0.183605,0.101582 0.04477,0.04666 0.07623,0.10849097 0.0947,0.18590397 0.01878,0.07741 0.02817,0.172077 0.02817,0.284606 z m 0.420492,-0.98733697 c -0.09829,-0.10043197 -0.228606,-0.17870897 -0.389844,-0.23482297 -0.161793,-0.05612 -0.364995,-0.08431 -0.610169,-0.08431 -0.263668,0 -0.481787,0.03075 -0.654342,0.09267 -0.172836,0.06216 -0.310336,0.153952 -0.412211,0.27625297 -0.102156,0.121723 -0.173665,0.271653 -0.214519,0.44949797 -0.04117,0.17813 -0.06128,0.383309 -0.06128,0.615546 v 0.325172 c 0,0.216983 0.01933,0.409494 0.05823,0.57783596 0.03921,0.168349 0.107948,0.310505 0.206231,0.4264771 0.09857,0.116257 0.233028,0.205465 0.403931,0.267338 0.170903,0.06191 0.38791,0.09295 0.65186,0.09295 h 0.470462 c 0.07623,0 0.154891,-8.16e-4 0.236887,-0.0033 0.08145,-0.0016 0.174495,-0.0049 0.278303,-0.0089 l 0.111548,-0.5804381 c -0.2449,0.0073 -0.451139,0.0115 -0.618457,0.0115 h -0.445614 c -0.133626,0 -0.241308,-0.0095 -0.323031,-0.02879 -0.08172,-0.01958 -0.14578,-0.05441 -0.192159,-0.104755 -0.04641,-0.05033 -0.07701,-0.119993 -0.09194,-0.20890696 -0.01487,-0.08893 -0.02238,-0.203173 -0.02238,-0.342743 h 1.448663 c 0.08145,0 0.150195,-0.0082 0.205965,-0.023 0.05549,-0.0155 0.101053,-0.04666 0.136397,-0.09324 0.03537,-0.04633 0.0605,-0.111078 0.07513,-0.194249 0.01487,-0.08316 0.02238,-0.19079 0.02238,-0.322293 v -0.0987 c 0,-0.162598 -0.02019,-0.312528 -0.06105,-0.44979097 -0.04117,-0.13727 -0.110711,-0.256406 -0.209001,-0.357409 M 25.389207,-1.1775327 H 24.51454 l -1.0972,1.14389094 V -2.1910557 h -0.724199 v 4.032538 H 23.41734 V 0.44809327 l 1.197423,1.39338103 h 0.902553 L 24.057601,0.16953127 Z m -3.916405,2.4215859 c -0.130034,0 -0.238819,-0.0089 -0.326067,-0.02651 -0.08724,-0.01729 -0.155994,-0.05237 -0.206239,-0.104462 -0.05001,-0.05213 -0.08531,-0.12863196 -0.105733,-0.22934896 -0.02043,-0.100432 -0.03068,-0.232229 -0.03068,-0.394811 v -0.313679 c 0,-0.162305 0.0094,-0.294102 0.02786,-0.394534 0.01847,-0.100718 0.05298,-0.177257 0.103252,-0.229349 0.05001,-0.05237 0.117614,-0.08719 0.203202,-0.10446197 0.08532,-0.01754 0.196581,-0.02618 0.334347,-0.02618 0.06652,0 0.158483,8.16e-4 0.275549,0.0033 0.117058,0.0016 0.253454,0.0065 0.409448,0.01436 l 0.117058,-0.60949397 c -0.341798,-0.0115 -0.614857,-0.01754 -0.818889,-0.01754 -0.256217,0 -0.472677,0.02415 -0.649105,0.07285 -0.176421,0.04837 -0.319439,0.12661597 -0.428772,0.23482197 -0.109607,0.108492 -0.188575,0.249784 -0.236612,0.42417697 -0.0486,0.174092 -0.07263,0.385316 -0.07263,0.632514 v 0.31367 c 0,0.251505 0.02317,0.463879 0.06958,0.63597196 0.04641,0.172086 0.124243,0.312513 0.23385,0.4207191 0.109615,0.108491 0.252633,0.187046 0.429053,0.235109 0.176421,0.04837 0.39454,0.07284 0.654623,0.07284 0.08917,0 0.20044,-8.16e-4 0.334348,-0.0033 0.133626,-0.0016 0.259801,-0.0049 0.378526,-0.0089 l 0.117066,-0.6095031 c -0.118999,0.0041 -0.252633,0.0065 -0.401168,0.0086 -0.148543,0.0016 -0.286036,0.0033 -0.411937,0.0033 m -2.485672,0.05213 h -0.70763 c -0.185812,0 -0.312817,-0.02994 -0.381564,-0.09007 -0.06871,-0.05987 -0.102986,-0.151945 -0.102986,-0.27568196 v -0.110506 c 0,-0.143021 0.03702,-0.241724 0.111541,-0.296109 0.07396,-0.05408 0.217023,-0.08116 0.428779,-0.08116 h 0.08338 c 0.122584,0 0.221148,0.0065 0.29542,0.02039 0.07396,0.01322 0.131693,0.03565 0.172836,0.06673 0.04085,0.03075 0.06738,0.07048 0.08062,0.118851 0.01299,0.04837 0.01964,0.107325 0.01964,0.177258 z m 0.384045,-2.23539693 C 19.159614,-1.1053797 18.8272,-1.1888287 18.374128,-1.1888287 c -0.185812,0 -0.356441,8.16e-4 -0.512435,0.0033 -0.155993,0.0016 -0.286027,0.0049 -0.390117,0.0083 l -0.116792,0.60977897 c 0.07044,0 0.148543,-8.15e-4 0.234132,-0.0033 0.08531,-0.0016 0.17145,-0.0041 0.25898,-0.0057 0.08724,-0.0016 0.173383,-0.0033 0.258972,-0.0033 h 0.23385 c 0.126175,0 0.231368,0.0082 0.31475,0.02333 0.08366,0.01525 0.149365,0.04348 0.197692,0.08403 0.04805,0.04054 0.08254,0.09583 0.102979,0.16547 0.02066,0.06966 0.03091,0.156831 0.03091,0.261293 v 0.104462 c -0.06324,-0.04234 -0.15903,-0.08027 -0.286865,-0.113092 -0.128108,-0.03312 -0.28879,-0.04952 -0.482061,-0.04952 -0.386259,0 -0.670353,0.07284 -0.852299,0.217839 -0.181954,0.145036 -0.272786,0.378423 -0.272786,0.69986 v 0.127481 c 0,0.29035803 0.08255,0.51280603 0.247937,0.66762303 0.165104,0.15511 0.446444,0.232237 0.843738,0.232237 h 0.908085 c 0.218933,0 0.373002,-0.03973 0.462175,-0.118852 0.08918,-0.07912 0.133908,-0.221583 0.133908,-0.426763 v -1.45180303 c 0,-0.355966 -0.105749,-0.61725897 -0.317787,-0.78358497 m -2.9393,-0.249792 c -0.185812,0 -0.350915,0.01844 -0.495866,0.05523 -0.144943,0.03687 -0.26726,0.09583 -0.367758,0.177265 -0.09994,0.08116 -0.176146,0.18849 -0.228332,0.322016 -0.05189,0.13353397 -0.07787,0.29726597 -0.07787,0.49065897 V 1.8412433 h 0.724191 v -1.86359703 c 0,-0.09295 0.0047,-0.173244 0.01377,-0.240868 0.0092,-0.06787 0.03232,-0.124031 0.06989,-0.168635 0.03671,-0.04429 0.08891,-0.07831 0.155712,-0.101582 0.06707,-0.023 0.159586,-0.03483 0.278585,-0.03483 0.05932,0 0.133626,8.15e-4 0.222815,0.0033 0.08916,0.0016 0.170613,0.0049 0.245159,0.0089 l 0.116792,-0.62704797 c -0.09663,-0.0041 -0.194641,-0.0057 -0.295146,-0.0057 z m -2.338247,2.433096 c -0.130042,0 -0.23882,-0.0089 -0.326067,-0.02651 -0.08725,-0.01729 -0.155994,-0.05237 -0.206239,-0.104461 -0.05001,-0.05213 -0.08531,-0.12863203 -0.105749,-0.22935003 -0.02011,-0.100432 -0.03068,-0.232229 -0.03068,-0.394811 v -0.313679 c 0,-0.162304 0.0094,-0.294101 0.02786,-0.394533 0.01847,-0.100718 0.05298,-0.177257 0.103252,-0.22935 0.05001,-0.05237 0.117629,-0.08719 0.20321,-0.10446097 0.08531,-0.01754 0.196855,-0.02618 0.334347,-0.02618 0.06652,0 0.158757,8.16e-4 0.275549,0.0033 0.117057,0.0016 0.253454,0.0065 0.40944,0.01436 l 0.117066,-0.609494 c -0.341806,-0.0115 -0.614584,-0.01754 -0.818897,-0.01754 -0.256209,0 -0.472669,0.02415 -0.648816,0.07284 -0.176702,0.04837 -0.319446,0.126617 -0.429053,0.234823 -0.109607,0.108491 -0.188575,0.249783 -0.236613,0.42417697 -0.0486,0.174092 -0.07263,0.385316 -0.07263,0.632513 v 0.313671 c 0,0.251505 0.02317,0.463879 0.06958,0.63597203 0.04641,0.172085 0.124243,0.312513 0.23385,0.420718 0.109607,0.108492 0.252633,0.187046 0.429053,0.235109 0.176421,0.04837 0.39454,0.07284 0.654615,0.07284 0.08918,0 0.200448,-8.15e-4 0.334355,-0.0033 0.133627,-0.0016 0.259802,-0.0049 0.378801,-0.0089 l 0.116784,-0.609501 c -0.118717,0.0041 -0.252625,0.0065 -0.400886,0.0086 -0.148817,0.0016 -0.28631,0.0033 -0.412211,0.0033 m -1.746572,-1.800004 0.117066,-0.621582 h -1.04143 v -0.824454 l -0.724199,0.122294 v 2.58359697 c 0,0.220719 0.01683,0.40431403 0.05001,0.55165903 0.03342,0.14705 0.09387,0.264172 0.181117,0.351365 0.08725,0.08691 0.205964,0.147915 0.35644,0.182445 0.150469,0.03483 0.342636,0.05237 0.576486,0.05237 h 0.45142 l 0.116777,-0.621012 h -0.517945 c -0.100231,0 -0.183057,-0.0065 -0.247663,-0.02039 -0.06519,-0.01354 -0.115407,-0.04054 -0.15075,-0.08141 -0.03537,-0.0403 -0.05932,-0.09755 -0.07231,-0.17122103 -0.01299,-0.07333 -0.01933,-0.168349 -0.01933,-0.284321 V -0.5562277 Z M 9.6190873,0.03594627 h -1.197698 c 0,-0.147336 0.007,-0.268202 0.02207,-0.362884 0.01487,-0.09495 0.04469,-0.170356 0.08918,-0.22646897 0.04477,-0.05612 0.106015,-0.09497 0.183879,-0.116258 0.07811,-0.02129 0.180287,-0.03198 0.306462,-0.03198 0.115133,0 0.21149,0.01069 0.28962,0.03198 0.07787,0.02129 0.139152,0.05523 0.183879,0.101583 0.04445,0.04666 0.07623,0.10849097 0.09471,0.18590297 0.01847,0.07741 0.02786,0.172078 0.02786,0.284607 z M 10.039578,-0.9513917 c -0.09829,-0.100432 -0.2283317,-0.178709 -0.3898427,-0.234822 -0.161794,-0.05612 -0.365003,-0.08431 -0.61017,-0.08431 -0.263668,0 -0.481787,0.03075 -0.654349,0.09267 -0.172554,0.06216 -0.310054,0.153952 -0.412203,0.276253 -0.102157,0.121723 -0.173666,0.271653 -0.214519,0.44949697 -0.04085,0.17813 -0.06128,0.38331 -0.06128,0.615547 v 0.325172 c 0,0.216983 0.01957,0.409494 0.05854,0.57783503 0.0389,0.16835 0.107666,0.310506 0.205957,0.426478 0.09856,0.116257 0.233028,0.205465 0.40393,0.267337 0.170903,0.06191 0.387911,0.09295 0.651853,0.09295 h 0.47047 c 0.07623,0 0.155164,-8.16e-4 0.236886,-0.0033 0.08172,-0.0016 0.174496,-0.0049 0.2785767,-0.0089 l 0.111549,-0.580438 c -0.2451747,0.0073 -0.4514207,0.0115 -0.6184577,0.0115 h -0.445614 c -0.133908,0 -0.241308,-0.0095 -0.323304,-0.02879 -0.08145,-0.01958 -0.145507,-0.05441 -0.192167,-0.104755 -0.04641,-0.05033 -0.07701,-0.119993 -0.09194,-0.20890803 -0.01495,-0.08893 -0.02207,-0.203172 -0.02207,-0.342743 h 1.44839 c 0.08172,0 0.1504677,-0.0082 0.2059647,-0.023 0.0558,-0.0155 0.101053,-0.04666 0.136388,-0.09324 0.03561,-0.04633 0.0605,-0.111077 0.07537,-0.194248 0.01487,-0.08316 0.02207,-0.19079 0.02207,-0.322293 v -0.0987 c 0,-0.162598 -0.02011,-0.312529 -0.06105,-0.44979097 -0.04117,-0.13727 -0.110711,-0.256407 -0.209002,-0.35741 M 6.5927903,0.57540027 4.693269,-2.2928117 H 4.0524587 v 4.133817 h 0.741307 v -2.844898 l 1.8882126,2.844898 h 0.646335 v -4.133809 h -0.735516 z" style="stroke-width:.799006"/><path id="path24" fill="#4d76a4" d="m 1.2091724,-3.7146957 -2.05304161,5.296381 c -0.12119812,0.312235 -0.41192939,0.516843 -0.73495989,0.516843 h 1.30261699 c 0.5052502,0 0.9599737,-0.319715 1.149378,-0.808057 l 1.94011591,-5.005183 z m -4.0889591,0.387608 c 0.6496609,0 1.2264121,0.405473 1.4696535,1.033092 l 0.90061909,2.32345397 0.4011604,-1.03452697 -0.6123766,-1.579277 c -0.35726259,-0.922014 -1.20487419,-1.517983 -2.15905639,-1.517983 -0.9541823,0 -1.8015121,0.595969 -2.1587827,1.517983 l -1.8153099,4.682874 h 0.8020469 l 1.7026738,-4.392516 c 0.2432414,-0.627619 0.8200004,-1.033092 1.4693719,-1.033092 m 2.739e-4,1.033385 c 0.2429674,0 0.4588715,0.151937 0.5499853,0.38676 l 1.285219,3.315686 0.40116029,-1.03453503 -0.99669469,-2.57149997 c -0.2054168,-0.529487 -0.6918917,-0.871358 -1.2396699,-0.871358 -0.5480444,0 -1.0347932,0.341871 -1.2399361,0.871358 l -1.6651232,4.295821 h 0.8020547 l 1.5527532,-4.005456 c 0.090832,-0.234831 0.3070257,-0.386767 0.5502514,-0.386767 m 0.3202756,0.483447 c -0.116518,-0.300138 -0.5243072,-0.300138 -0.6408173,0 l -1.5152105,3.908767 h 0.8020547 l 1.0334236,-2.666181 0.7957153,2.052658 c 0.0831,0.214675 0.2829989,0.35511 0.5049762,0.35511 h 2.74e-4 c 0.1421881,0 0.2747109,-0.05816 0.3741048,-0.155967 z" style="stroke-width:.799006"/><rect style="opacity:0;fill:#000;fill-opacity:0;fill-rule:evenodd;stroke-width:.0513625" id="rect132" width="37.421" height="6.554" x="-7.112" y="-16.744"/><rect style="opacity:0;fill:#000;fill-opacity:0;stroke-width:.0513625" id="rect2899" width="35.47" height="12.407" x="-8.813" y="-18.476"/></svg>